# xmcd
#
# Track frame offsets:
#	150
#	25882
#	46110
#	56522
#	76772
#	88957
#	94895
#	111585
#	124817
#	215280
#	231422
#	265802
#	273665
#	293815
#	308882
#	317000
#	341597
#	345485
#
# Disc length: 4667 seconds
#
# Revision: 4
# Processed by: cddbd v1.5.2PL0 Copyright (c) Steve Scherf et al.
# Submitted via: EZCDAudioConverter 2.1.7.1
#
DISCID=0a123912
DTITLE=Lenny Bruce - Lenny Bruce Originals V2
DYEAR=1900
DGENRE=
TTITLE0=White Collar Drunks
TTITLE1=The Defiant Ones (With Eric Miller)
TTITLE2=The Phone Company
TTITLE3=The Steve Allen Show
TTITLE4=Esther Costello Story
TTITLE5=Bronchitis
TTITLE6=My Trip To Miami
TTITLE7=The Tribunal
TTITLE8=The Palladium
TTITLE9=Our Governors
TTITLE10=Lima, Ohio
TTITLE11=Airplane Glue
TTITLE12=Shelley Berman/Chicago/Nightclub Owners
TTITLE13=How To Relax Your Colored Friends At Parties
TTITLE14=The Lost Boy
TTITLE15=Marriage, Divorce And Motels
TTITLE16=Don's Big Dago
TTITLE17=Commercials
EXTD=
EXTT0=
EXTT1=
EXTT2=
EXTT3=
EXTT4=
EXTT5=
EXTT6=
EXTT7=
EXTT8=
EXTT9=
EXTT10=
EXTT11=
EXTT12=
EXTT13=
EXTT14=
EXTT15=
EXTT16=
EXTT17=
PLAYORDER=
